Coordinates
version=1
nRows=27
nColumns=38
inDegrees=no

Units are S.I. units (second, meters, Newtons, ...)
If the header above contains a line with 'inDegrees', this indicates whether rotational values are in degrees (yes) or radians (no).

endheader
time	pelvis_tilt	pelvis_list	pelvis_rotation	pelvis_tx	pelvis_ty	pelvis_tz	hip_flexion_r	hip_adduction_r	hip_rotation_r	knee_angle_r	ankle_angle_r	subtalar_angle_r	mtp_angle_r	hip_flexion_l	hip_adduction_l	hip_rotation_l	knee_angle_l	ankle_angle_l	subtalar_angle_l	mtp_angle_l	lumbar_extension	lumbar_bending	lumbar_rotation	arm_flex_r	arm_add_r	arm_rot_r	elbow_flex_r	pro_sup_r	wrist_flex_r	wrist_dev_r	arm_flex_l	arm_add_l	arm_rot_l	elbow_flex_l	pro_sup_l	wrist_flex_l	wrist_dev_l
22.99	1.26774	1.48349	0.208316	0.707473	-0.451602	0.974007	0.0929773	0.0373179	-0.215506	0.242409	0.0993181	0	0	0.00239506	-0.160839	-0.346932	0.0971899	0.0688548	0	0	-0.0476397	0.0836769	0.170799	-0.231446	-0.238295	0.0651109	0.736984	1.19423	0	0	-0.309334	-0.218832	-0.0413076	0.745573	0.988526	0	0
23	1.23986	1.4865	0.233169	0.709239	-0.451604	0.974342	0.0939236	0.0357933	-0.212854	0.240843	0.0992554	0	0	0.00418949	-0.157953	-0.347211	0.0996328	0.0722027	0	0	-0.0447049	0.0838372	0.174539	-0.232628	-0.236242	0.062762	0.73175	1.20135	0	0	-0.31634	-0.211111	-0.0593753	0.759611	0.997408	0	0
23.01	1.21224	1.48964	0.258293	0.710828	-0.451563	0.974711	0.0941803	0.0340425	-0.210544	0.238483	0.0988339	0	0	0.00562125	-0.154362	-0.346652	0.101915	0.0756131	0	0	-0.0420305	0.083753	0.177383	-0.23412	-0.234261	0.0597105	0.727031	1.20592	0	0	-0.323092	-0.20406	-0.0742011	0.773338	1.00499	0	0
23.02	1.06848	1.50204	0.399388	0.712532	-0.451368	0.973825	0.102443	0.015664	-0.218833	0.245198	0.111229	0	0	0.0118047	-0.137641	-0.34517	0.104193	0.0801234	0	0	-0.0334576	0.0697332	0.179072	-0.237327	-0.230089	0.0589603	0.726271	1.20714	0	0	-0.333535	-0.202895	-0.0830589	0.793514	1.00662	0	0
23.03	1.01444	1.50526	0.452243	0.713754	-0.451312	0.974135	0.104164	0.01201	-0.219607	0.245306	0.112661	0	0	0.0141805	-0.132097	-0.342051	0.107463	0.0844723	0	0	-0.0303165	0.0686667	0.18029	-0.238958	-0.228637	0.0579387	0.723614	1.20857	0	0	-0.339231	-0.197775	-0.0902088	0.806491	1.00855	0	0
23.04	0.982128	1.50817	0.484672	0.714834	-0.451214	0.974559	0.102746	0.00976003	-0.218899	0.24197	0.112018	0	0	0.0152638	-0.127091	-0.336515	0.110993	0.0894107	0	0	-0.0289533	0.0683497	0.179203	-0.239206	-0.227241	0.0572417	0.720116	1.21366	0	0	-0.344319	-0.191967	-0.0991539	0.818069	1.01707	0	0
23.05	0.956141	1.51109	0.511641	0.715774	-0.45114	0.974989	0.100695	0.00778915	-0.218297	0.238276	0.111043	0	0	0.0161635	-0.121945	-0.329149	0.115173	0.0944679	0	0	-0.0284304	0.0681758	0.177422	-0.239824	-0.225994	0.0562931	0.718442	1.21687	0	0	-0.347585	-0.187496	-0.102922	0.826739	1.02666	0	0
23.06	0.934003	1.51378	0.535632	0.716565	-0.451095	0.975388	0.0985047	0.00590519	-0.218296	0.234974	0.110384	0	0	0.0173119	-0.116829	-0.320333	0.11996	0.0991755	0	0	-0.028372	0.0682183	0.175098	-0.24099	-0.224916	0.0551321	0.71834	1.21792	0	0	-0.349368	-0.184092	-0.10277	0.83365	1.03524	0	0
23.07	0.91679	1.51638	0.555191	0.717245	-0.451036	0.975773	0.096077	0.00405499	-0.218831	0.232042	0.109774	0	0	0.018549	-0.111853	-0.311544	0.125561	0.103911	0	0	-0.0286241	0.06836	0.172721	-0.242527	-0.223897	0.053712	0.718735	1.21782	0	0	-0.349947	-0.181927	-0.0990978	0.83938	1.04351	0	0
23.08	0.903385	1.51887	0.570991	0.717825	-0.450951	0.976142	0.093614	0.00225955	-0.219452	0.229541	0.109336	0	0	0.0196841	-0.107056	-0.304278	0.131412	0.108576	0	0	-0.0291291	0.0686928	0.170418	-0.244098	-0.22308	0.0526313	0.719568	1.21754	0	0	-0.349446	-0.180553	-0.0930994	0.843525	1.05248	0	0
23.09	0.889298	1.52108	0.587423	0.718316	-0.450864	0.976467	0.0917072	0.000486357	-0.220263	0.227926	0.10927	0	0	0.0206674	-0.102225	-0.298474	0.136561	0.112856	0	0	-0.0296555	0.0692229	0.167728	-0.245105	-0.222685	0.0528809	0.720458	1.21784	0	0	-0.348148	-0.179193	-0.0868437	0.846132	1.05916	0	0
23.1	0.641924	1.52037	0.84667	0.717856	-0.452465	0.976428	0.105128	-0.00906109	-0.228231	0.232472	0.109814	0	0	0.0343164	-0.0950485	-0.31486	0.131301	0.108509	0	0	-0.0216522	0.0632343	0.155279	-0.240472	-0.220059	0.0537762	0.71466	1.21774	0	0	-0.341634	-0.179269	-0.078708	0.844068	1.06606	0	0
23.11	0.597061	1.51983	0.894968	0.718143	-0.452238	0.976441	0.106625	-0.0107755	-0.232475	0.23316	0.111183	0	0	0.0366494	-0.0902151	-0.310123	0.132887	0.111618	0	0	-0.0187592	0.0642155	0.151334	-0.241478	-0.219599	0.0540619	0.712551	1.21677	0	0	-0.339618	-0.179051	-0.0703026	0.844317	1.07476	0	0
23.12	0.869162	1.52377	0.617792	0.719112	-0.450194	0.976965	0.0865993	-0.00182052	-0.228353	0.223423	0.109725	0	0	0.0202638	-0.08945	-0.285676	0.139707	0.123114	0	0	-0.0289766	0.0741039	0.156264	-0.248367	-0.223743	0.0587207	0.720858	1.20597	0	0	-0.341327	-0.178125	-0.0617194	0.848397	1.09795	0	0
23.13	0.863149	1.52335	0.626385	0.719289	-0.449937	0.976919	0.0863378	-0.00171064	-0.23092	0.223188	0.110288	0	0	0.0189302	-0.0857401	-0.284237	0.135812	0.127383	0	0	-0.0280976	0.0766346	0.152043	-0.248156	-0.224654	0.0617092	0.719757	1.20392	0	0	-0.338811	-0.17754	-0.0542566	0.848171	1.10304	0	0
23.14	0.859165	1.52247	0.632569	0.719446	-0.449678	0.976813	0.0866329	-0.00126525	-0.233514	0.223571	0.111084	0	0	0.0171951	-0.0823951	-0.283605	0.130651	0.133712	0	0	-0.0267447	0.079393	0.147723	-0.247172	-0.225793	0.0661447	0.71755	1.20138	0	0	-0.336263	-0.177837	-0.0447547	0.847475	1.10919	0	0
23.15	0.857063	1.52124	0.636646	0.719547	-0.44941	0.97665	0.087229	-0.000564575	-0.236005	0.22422	0.112029	0	0	0.0150473	-0.0792268	-0.283314	0.123812	0.140967	0	0	-0.0251402	0.0822413	0.143271	-0.245405	-0.226949	0.0714237	0.714259	1.19842	0	0	-0.33364	-0.178752	-0.0339403	0.846523	1.11548	0	0
23.16	0.857597	1.51967	0.638211	0.719588	-0.449121	0.97644	0.0878728	0.000457175	-0.238483	0.22479	0.112933	0	0	0.012684	-0.0763113	-0.283046	0.115462	0.147414	0	0	-0.0233825	0.085162	0.138263	-0.243004	-0.227987	0.0770464	0.709668	1.19471	0	0	-0.330446	-0.18003	-0.0222038	0.844573	1.12124	0	0
23.17	0.863763	1.51794	0.634296	0.719574	-0.448818	0.976228	0.0881886	0.00181885	-0.241086	0.22507	0.113583	0	0	0.0102301	-0.0737652	-0.282547	0.107014	0.152128	0	0	-0.0216874	0.0880854	0.132825	-0.240114	-0.228801	0.0826596	0.704169	1.19076	0	0	-0.327173	-0.181758	-0.0095249	0.842222	1.12667	0	0
23.18	0.877283	1.51609	0.62342	0.719493	-0.448498	0.976033	0.0879634	0.00351993	-0.243955	0.225029	0.11412	0	0	0.00741724	-0.0715582	-0.280625	0.097963	0.154714	0	0	-0.0202121	0.0910247	0.126614	-0.236355	-0.229416	0.0894118	0.697257	1.1842	0	0	-0.323503	-0.184768	0.00673044	0.839439	1.13223	0	0
23.19	0.89127	1.51431	0.611931	0.719363	-0.448183	0.975838	0.0876891	0.00522837	-0.246369	0.225049	0.114677	0	0	0.00460985	-0.0694169	-0.278127	0.0889043	0.155575	0	0	-0.0190427	0.0936383	0.120122	-0.23225	-0.229351	0.0942317	0.690322	1.1787	0	0	-0.319381	-0.187385	0.0219537	0.836099	1.1339	0	0
23.2	0.903604	1.51248	0.602219	0.719171	-0.4479	0.975648	0.0875614	0.00688823	-0.248638	0.224991	0.115107	0	0	0.00231626	-0.0674924	-0.274713	0.0806978	0.155378	0	0	-0.0177884	0.0959084	0.113785	-0.228345	-0.228743	0.0976839	0.683023	1.17188	0	0	-0.31458	-0.190955	0.0399197	0.832753	1.13142	0	0
23.21	0.914621	1.51038	0.593988	0.718896	-0.44761	0.975435	0.0875672	0.00872064	-0.250856	0.224628	0.115336	0	0	0.000523326	-0.0659592	-0.270711	0.0729685	0.154762	0	0	-0.0163079	0.0981662	0.107381	-0.2245	-0.227715	0.100262	0.675339	1.16469	0	0	-0.309276	-0.195053	0.0594418	0.829066	1.12493	0	0
23.22	0.930715	1.50804	0.580377	0.718435	-0.447324	0.975202	0.0875422	0.0107521	-0.25306	0.224544	0.115522	0	0	-0.00147874	-0.0646923	-0.265895	0.0652201	0.153405	0	0	-0.0161461	0.0999793	0.10561	-0.191631	-0.188133	-0.209721	0.626939	0	0	0	-0.300315	-0.201751	0.0890268	0.825137	1.10849	0	0
23.23	0.944349	1.50642	0.569673	0.718006	-0.447082	0.974966	0.0874342	0.0120188	-0.256051	0.225112	0.11634	0	0	-0.00377072	-0.0628364	-0.259591	0.0572773	0.15052	0	0	-0.0143673	0.102913	0.0942972	-0.218398	-0.230235	0.124982	0.669645	1.10904	0	0	-0.296108	-0.203938	0.104757	0.819103	1.11146	0	0
23.24	0.957284	1.50444	0.55903	0.717449	-0.446862	0.974704	0.0879485	0.0133697	-0.258415	0.22635	0.117248	0	0	-0.00573034	-0.0612964	-0.254234	0.050048	0.146673	0	0	-0.0139881	0.105032	0.0886274	-0.215615	-0.228829	0.123596	0.664555	1.11518	0	0	-0.288636	-0.206653	0.121908	0.814294	1.11462	0	0
23.25	0.792741	1.50052	0.734201	0.716067	-0.448323	0.974041	0.105323	0.00622861	-0.268392	0.235466	0.11971	0	0	0.00617562	-0.0569154	-0.263735	0.0347422	0.133286	0	0	-0.00385923	0.100127	0.0751405	-0.208336	-0.224036	0.119864	0.651819	1.11915	0	0	-0.276065	-0.211877	0.145512	0.804298	1.11457	0	0
